<?xml version="1.0" encoding="utf-8"?>
<!-- Generator: Adobe Illustrator 22.0.1, SVG Export Plug-In . SVG Version: 6.00 Build 0)  -->
<svg version="1.1" id="Capa_1" xmlns="http://www.w3.org/2000/svg" xmlns:xlink="http://www.w3.org/1999/xlink" x="0px" y="0px"
	 viewBox="0 0 512 512" style="enable-background:new 0 0 512 512;" xml:space="preserve">
<style type="text/css">
	.st0{fill:#31D96D;}
</style>
<g id="Outline">
	<g>
		<path class="st0" d="M476,416c4.4,0,8-3.6,8-8V136c0-4.4-3.6-8-8-8c-1.6,0-3.1,0.5-4.4,1.3l-4.1,2.8c-1.7-12.9-7.6-25-16.8-34.3
			c1.9-0.6,3.9-1,5.9-1.3l4.6-0.6c4.4-0.6,7.4-4.6,6.8-9s-4.6-7.4-9-6.8l0,0l-4.6,0.6c-6.6,0.9-13,3-18.8,6
			c-14.2-7.4-30.7-8.8-45.9-3.7c4.1-5.5,6.4-12.1,6.4-19c0-17.7-14.3-32-32-32c-2.5,0-5,0.3-7.4,0.9c-12.7-18-37.5-22.3-55.5-9.6
			c-3.7,2.6-7,5.9-9.6,9.6c-2.4-0.6-4.9-0.9-7.4-0.9c-17.7,0-32,14.3-32,32c0,2.5,0.3,5,0.9,7.4c-17.9,12.6-22.3,37.3-9.7,55.3
			c0.3,0.4,0.6,0.9,1,1.3c-1.2,1.5-2.2,3.2-3.1,4.9l-38.6-67l0,0l-8-13.9c-19.9-34.4-63.9-46.2-98.3-26.4c0,0,0,0-0.1,0
			c-19.4,11.1-26,35.6-14.9,54.7l9.1,15.8c2.2,3.8,7.1,5.1,10.9,2.9s5.1-7.1,2.9-10.9l-9.2-15.8c-6.6-11.5-2.7-26.2,8.8-32.8l0,0
			c26.8-15.5,61-6.3,76.5,20.5l0,0l4,6.9l-27.7,16c-3.8,2.2-5.1,7.1-2.9,10.9c2.2,3.8,7.1,5.1,10.9,2.9l27.7-16l12,20.8l-27.7,16
			c-3.8,2.2-5.1,7.1-2.9,10.9c1.1,1.9,3,3.3,5.2,3.8L143.6,156L119,113.5c-2.2-3.8-7.1-5.1-10.9-2.9s-5.1,7.1-2.9,10.9l0,0
			l12.8,22.2l-21.5-14.4c-3.7-2.4-8.6-1.4-11.1,2.2c-0.9,1.3-1.3,2.9-1.3,4.4v40c0,4.4,3.6,8,8,8s8-3.6,8-8v-25l35.6,23.7
			c2.7,1.8,6.2,1.8,8.9,0l43.6-29.1l43.6,29c2.7,1.8,6.2,1.8,8.9,0l43.6-29l43.6,29c2.7,1.8,6.2,1.8,8.9,0l35.6-23.7V480H268
			c-4.4,0-8,3.6-8,8s3.6,8,8,8h208c4.4,0,8-3.6,8-8v-48c0-4.4-3.6-8-8-8s-8,3.6-8,8v28.7l-32-32V392c0-4.4-3.6-8-8-8s-8,3.6-8,8
			v44.7l-32,32V150.9l32,21.3V272c0,4.4,3.6,8,8,8s8-3.6,8-8v-99.7l32-21.3v257C468,412.4,471.6,416,476,416z M420.7,97.9
			c-2.9,3-5.4,6.4-7.6,10c-2.3,3.7-1.2,8.7,2.5,11s8.7,1.2,11-2.5c0.1-0.1,0.1-0.2,0.1-0.2c2.3-3.9,5.3-7.4,8.8-10.3
			C446,114.1,452,126.7,452,140c0,0.9-0.1,1.7-0.2,2.5L428,158.4l-43.6-29c-1.3-0.9-2.9-1.4-4.4-1.4l0,0c0-5.6-1.5-11.2-4.4-16
			c0.7-1.2,1.3-2.4,1.8-3.6C388.9,97.3,405.5,93.3,420.7,97.9L420.7,97.9z M192.4,129.3c-0.7-0.5-1.5-0.8-2.3-1l22.3-12.9l24.4,42.3
			l-0.9,0.6L192.4,129.3z M332,158.4l-32.5-21.7c9.2-17,24.1-30.3,42.1-37.5c4.1-1.6,6.1-6.3,4.5-10.4s-6.3-6.1-10.4-4.5
			c-9.2,3.7-17.8,8.8-25.4,15c0.7-9.8-0.1-19.7-2.5-29.3c-1-4.3-5.4-6.9-9.7-5.9c-4.3,1-6.9,5.4-5.9,9.7v0.1
			c4.6,18.3,2.3,37.6-6.4,54.3c-2.1-0.5-4.4-0.1-6.2,1.1l-27.1,18c1-5.2,3.8-9.9,7.8-13.4c3.3-2.9,3.6-8,0.7-11.3
			c-0.2-0.3-0.5-0.5-0.7-0.7c-5.3-4.5-8.3-11.1-8.3-18c0-9.4,5.5-17.9,14.1-21.8c4-1.8,5.8-6.6,4-10.6c-0.1-0.1-0.1-0.2-0.2-0.3
			c-1.2-2.2-1.8-4.7-1.9-7.3c0.1-8.8,7.3-15.9,16.1-15.9c2.5,0,4.9,0.6,7.2,1.7c3.9,2,8.8,0.5,10.8-3.4c0.1-0.1,0.1-0.2,0.2-0.3
			c5.4-12,19.6-17.4,31.6-12c5.3,2.4,9.6,6.7,12,12c0.9,2,2.6,3.5,4.7,4.2s4.3,0.5,6.3-0.5c7.8-4.1,17.4-1.1,21.5,6.7
			s1.1,17.4-6.7,21.5c-1.1,0.6-2.2,1-3.3,1.3c-4.3,1.2-6.8,5.5-5.6,9.8c0.1,0.3,0.2,0.6,0.3,0.9c0.8,1.9,1.2,3.9,1.2,6
			c0,3.9-1.5,7.7-4.2,10.6c-2.7,3-2.7,7.7,0,10.7c5.9,6.5,5.5,16.5-1,22.5c-2.9,2.7-6.7,4.2-10.6,4.2c-0.2,0-1.1-0.1-1.3-0.1
			c-4.4-0.3-8.1,3-8.4,7.4c-0.1,0.9,0,1.8,0.3,2.6L332,158.4z M428,451.3l28.7,28.7h-57.4L428,451.3z"/>
		<path class="st0" d="M428,312c-4.4,0-8,3.6-8,8v32c0,4.4,3.6,8,8,8s8-3.6,8-8v-32C436,315.6,432.4,312,428,312z"/>
		<path class="st0" d="M260.4,411.7c-4.4-0.3-8.2,3-8.6,7.4l0,0C250.1,443.7,233,480,220,480c-6.9,0-13.7-2.3-19.2-6.6
			c-2.9-2.2-6.8-2.2-9.6,0c-5.5,4.2-12.2,6.5-19.2,6.6c-14.4,0-32-42.8-32-64c0-17.7,14.3-32,32-32c6.9,0,13.7,2.3,19.2,6.6
			c2.9,2.2,6.8,2.2,9.6,0c13.2-9.9,31.8-8.1,42.8,4.1c3.2,3.1,8.2,3,11.3-0.1c2.8-2.9,3.1-7.4,0.6-10.6c-9.1-10.1-22-15.9-35.6-16
			c-5.8,0-11.5,1.1-16.8,3.2c-0.6-3.8-1.5-7.6-2.8-11.2H220c22.1,0,40-17.9,40-40c0-4.4-3.6-8-8-8h-24c-17.9,0-33.6,12-38.4,29.3
			c-3.8-4.6-8.2-8.7-13.2-12c-3.7-2.5-8.6-1.5-11.1,2.2s-1.5,8.6,2.2,11.1c9.7,6.5,16.6,16.4,19.2,27.8c-4.7-1.6-9.7-2.4-14.7-2.5
			c-2.7,0-5.4,0.3-8,0.7v-10.1c0-16.6-6.6-32.6-18.3-44.3c-8.8-8.7-13.7-20.6-13.7-33V248c4.4,0,8-3.6,8-8v-32c0-4.4-3.6-8-8-8H60
			c-4.4,0-8,3.6-8,8v32c0,4.4,3.6,8,8,8v33.4c0,12.4-4.9,24.3-13.7,33C34.6,326.1,28,342,28,358.6V488c0,4.4,3.6,8,8,8h88
			c4.4,0,8-3.6,8-8s-3.6-8-8-8H44v-40h83.8c6.8,25.6,22.6,56,44.2,56c8.4,0,16.7-2.3,24-6.6c7.3,4.3,15.6,6.6,24,6.6
			c27.4,0,45.9-50,47.8-75.8C268.1,415.8,264.8,412,260.4,411.7L260.4,411.7z M228,328h14.6c-3.4,9.6-12.5,16-22.6,16h-14.6
			C208.8,334.4,217.8,328,228,328z M68,216h56v16H68V216z M44,424v-40h72c4.4,0,8-3.6,8-8s-3.6-8-8-8H44v-9.4
			c0-12.4,4.9-24.3,13.7-33C69.4,313.9,76,298,76,281.4V248h40v33.4c0,16.6,6.6,32.6,18.3,44.3c8.8,8.7,13.7,20.6,13.7,33v15.9
			c-14.8,8.6-24,24.4-24,41.5c0,2.7,0.2,5.3,0.6,8L44,424L44,424z"/>
		<path class="st0" d="M332,216h-72c-4.4,0-8,3.6-8,8s3.6,8,8,8h72c4.4,0,8-3.6,8-8S336.4,216,332,216z"/>
		<path class="st0" d="M332,256h-48c-4.4,0-8,3.6-8,8s3.6,8,8,8h48c4.4,0,8-3.6,8-8S336.4,256,332,256z"/>
	</g>
</g>
</svg>
