<?xml version="1.0" encoding="utf-8"?>
<!-- Generator: Adobe Illustrator 22.0.1, SVG Export Plug-In . SVG Version: 6.00 Build 0)  -->
<svg version="1.1" id="Capa_1" xmlns="http://www.w3.org/2000/svg" xmlns:xlink="http://www.w3.org/1999/xlink" x="0px" y="0px"
	 viewBox="0 0 512 512" style="enable-background:new 0 0 512 512;" xml:space="preserve">
<style type="text/css">
	.st0{fill:#31D96D;}
</style>
<g id="Outlines">
	<g>
		<path class="st0" d="M431.8,56.2c53,39.7,63.7,114.7,24.1,167.7c-3.4,4.6-7.2,8.9-11.2,13c-28.8,27.2-65.7,44.1-105,48.3
			c-33.9,2.2-63.7,23.3-77,54.6L242,360.4c-6.1,6.4-16.1,7.1-23,1.6c-6.6-5.9-7.1-16-1.2-22.6c0.2-0.2,0.4-0.4,0.6-0.6
			c3.1-3.2,3-8.2-0.2-11.3c-3.1-3-8-3-11.1,0c-6.2,6.2-16.4,6.2-22.6,0c-6-6.3-6-16.3,0-22.6c3.1-3.2,3-8.2-0.2-11.3
			c-3.1-3-8-3-11.1,0c-6.3,6.2-16.4,6.2-22.6,0c-0.2-0.2-0.4-0.4-0.6-0.6c-5.5-6.9-4.8-16.9,1.6-23c3.2-3.1,3.3-8.1,0.2-11.3
			c-3.1-3.2-8.1-3.3-11.3-0.2c-0.1,0.1-0.1,0.1-0.2,0.2c-12.6,12-13.5,31.8-2.1,45c2.2,2.4,4.8,4.5,7.7,6.1l-52.6,52.6
			c-20.2-15.8-49.4-12.8-65.9,6.8c-17.1,20.2-14.6,50.4,5.5,67.5c4.7,4,10.2,7.1,16.2,9c7.4,2.5,15.2,3.1,22.9,1.7
			c0.1,9.6,3.1,18.9,8.7,26.6c8.9,13.7,24.2,22,40.5,22.1c26.5-0.7,47.4-22.7,46.7-49.2c-0.3-12.2-5.2-23.7-13.8-32.4l36-36
			c3.1-3.1,3.1-8.2,0-11.3c-3.1-3.1-8.2-3.1-11.3,0l-42.2,42.2c-3.1,3.1-3.1,8.2,0,11.3c0.4,0.4,0.8,0.7,1.2,1
			c14.6,9.9,18.5,29.8,8.6,44.4c-5.8,8.6-15.4,13.8-25.7,14.1c-11-0.2-21.1-5.9-27-15.2c-6-7.6-7.5-17.8-4.1-26.9
			c1.4-4.2-0.9-8.7-5.1-10.1c-2-0.7-4.3-0.5-6.2,0.5c-7.5,4.1-16.3,4.8-24.4,2.1c-11.2-3.7-19.6-13.2-21.7-24.8
			c-3.1-17.3,8.4-33.9,25.7-37c10.9-2,22,1.9,29.4,10.1c3,3.3,8,3.5,11.3,0.5c0.1-0.1,0.2-0.2,0.3-0.3l64.8-64.8l0,0
			c-0.5,9.2,2.8,18.1,9.3,24.6c6,6,14.1,9.4,22.6,9.4c0.7,0,1.3,0,2-0.1c-0.1,1-0.1,1.9-0.1,2.8c0.2,8.8,4,17.1,10.6,23
			c13.2,11.4,32.9,10.4,45-2.1l20.6-20.6c1.4-1.4,2.6-3.2,3.4-5c11-25.8,35.7-43.2,63.7-44.9c43.1-4.5,83.5-23.1,115-52.9
			c53.1-52.4,53.7-137.9,1.4-191c-4.9-5-10.3-9.6-15.9-13.8c-3.5-2.6-8.6-1.9-11.2,1.6C427.6,48.7,428.3,53.7,431.8,56.2L431.8,56.2
			z"/>
		<path class="st0" d="M263.6,55.9c-30,31.4-48.6,71.9-52.9,115c-1.8,28-19.1,52.6-44.9,63.7c-4.1,1.7-6,6.4-4.4,10.4
			c1.7,4.1,6.4,6,10.4,4.4c31.4-13.3,52.6-43.2,54.8-77.2c4.1-39.4,21.1-76.3,48.3-105c34.3-34.4,86-44.7,130.9-26
			c4.1,1.7,8.8-0.2,10.5-4.3c0.4-1,0.6-2,0.6-3.1c0-3.2-1.9-6.2-4.9-7.4C361.1,5.2,302.5,16.9,263.6,55.9z"/>
		<circle class="st0" cx="407.8" cy="192.1" r="8"/>
		<circle class="st0" cx="423.8" cy="224.1" r="8"/>
		<circle class="st0" cx="439.8" cy="104.1" r="8"/>
		<circle class="st0" cx="399.8" cy="120.1" r="8"/>
		<circle class="st0" cx="375.8" cy="72.1" r="8"/>
		<circle class="st0" cx="447.8" cy="192.1" r="8"/>
		<circle class="st0" cx="423.8" cy="144.1" r="8"/>
		<circle class="st0" cx="407.8" cy="72.1" r="8"/>
		<circle class="st0" cx="399.8" cy="160.1" r="8"/>
		<circle class="st0" cx="375.8" cy="208.1" r="8"/>
		<circle class="st0" cx="455.8" cy="144.1" r="8"/>
		<circle class="st0" cx="383.8" cy="240.1" r="8"/>
		<circle class="st0" cx="287.8" cy="272.1" r="8"/>
		<circle class="st0" cx="343.8" cy="256.1" r="8"/>
	</g>
</g>
</svg>
