<svg width="45" height="45" viewBox="0 0 45 45" fill="none" xmlns="http://www.w3.org/2000/svg">
<path d="M14.4985 29.0921H14.5006C14.5023 29.0921 14.504 29.0918 14.5057 29.0918H38.4082C38.9967 29.0918 39.514 28.7014 39.6758 28.1356L44.9492 9.67861C45.0628 9.2807 44.9832 8.85292 44.7343 8.52264C44.485 8.19237 44.0953 7.99805 43.6816 7.99805H11.4581L10.5156 3.75698C10.3814 3.15376 9.8465 2.72461 9.22852 2.72461H1.31836C0.590172 2.72461 0 3.31478 0 4.04297C0 4.77116 0.590172 5.36133 1.31836 5.36133H8.17108C8.33794 6.11286 12.681 25.6569 12.9309 26.7812C11.5298 27.3903 10.5469 28.7873 10.5469 30.4102C10.5469 32.5909 12.3212 34.3652 14.502 34.3652H38.4082C39.1364 34.3652 39.7266 33.7751 39.7266 33.0469C39.7266 32.3187 39.1364 31.7285 38.4082 31.7285H14.502C13.7751 31.7285 13.1836 31.137 13.1836 30.4102C13.1836 29.6844 13.7731 29.0939 14.4985 29.0921ZM41.9338 10.6348L37.4136 26.4551H15.5594L12.0438 10.6348H41.9338Z" fill="#38CB6C"/>
<path d="M13.1836 38.3203C13.1836 40.5011 14.9579 42.2754 17.1387 42.2754C19.3195 42.2754 21.0938 40.5011 21.0938 38.3203C21.0938 36.1395 19.3195 34.3652 17.1387 34.3652C14.9579 34.3652 13.1836 36.1395 13.1836 38.3203ZM17.1387 37.002C17.8655 37.002 18.457 37.5935 18.457 38.3203C18.457 39.0471 17.8655 39.6387 17.1387 39.6387C16.4119 39.6387 15.8203 39.0471 15.8203 38.3203C15.8203 37.5935 16.4119 37.002 17.1387 37.002Z" fill="#38CB6C"/>
<path d="M31.8164 38.3203C31.8164 40.5011 33.5907 42.2754 35.7715 42.2754C37.9523 42.2754 39.7266 40.5011 39.7266 38.3203C39.7266 36.1395 37.9523 34.3652 35.7715 34.3652C33.5907 34.3652 31.8164 36.1395 31.8164 38.3203ZM35.7715 37.002C36.4983 37.002 37.0898 37.5935 37.0898 38.3203C37.0898 39.0471 36.4983 39.6387 35.7715 39.6387C35.0447 39.6387 34.4531 39.0471 34.4531 38.3203C34.4531 37.5935 35.0447 37.002 35.7715 37.002Z" fill="#38CB6C"/>
</svg>
