<svg width="35" height="35" viewBox="0 0 35 35" fill="none" xmlns="http://www.w3.org/2000/svg">
<g clip-path="url(#clip0)">
<path d="M16.1343 7.77733L0.559142 23.3528C0.198616 23.713 -1.56807e-07 24.1939 -1.34394e-07 24.7067C-1.1198e-07 25.2194 0.198616 25.7003 0.559142 26.0606L1.70588 27.2076C2.45311 27.954 3.66757 27.954 4.41366 27.2076L17.4927 14.1285L30.5863 27.2221C30.9469 27.5823 31.4275 27.7812 31.9399 27.7812C32.453 27.7812 32.9336 27.5823 33.2944 27.2221L34.4409 26.0751C34.8014 25.7146 35 25.2339 35 24.7212C35 24.2084 34.8014 23.7275 34.4409 23.3673L18.8515 7.77733C18.4898 7.41624 18.0069 7.2179 17.4936 7.21904C16.9783 7.2179 16.4957 7.41624 16.1343 7.77733Z" fill="#38CB6C"/>
</g>
<defs>
<clipPath id="clip0">
<rect width="35" height="35" fill="white" transform="translate(0 35) rotate(-90)"/>
</clipPath>
</defs>
</svg>
