<?xml version="1.0" encoding="utf-8"?>
<!-- Generator: Adobe Illustrator 22.0.1, SVG Export Plug-In . SVG Version: 6.00 Build 0)  -->
<svg version="1.1" id="Capa_1" xmlns="http://www.w3.org/2000/svg" xmlns:xlink="http://www.w3.org/1999/xlink" x="0px" y="0px"
	 viewBox="0 0 512 512" style="enable-background:new 0 0 512 512;" xml:space="preserve">
<style type="text/css">
	.st0{fill:#31D96D;}
</style>
<g id="Outline">
	<path class="st0" d="M488.9,203.4c-6-7.3-14.9-11.5-24.4-11.5c-10.3,0-20.5,1.8-30.1,5.2c-6.3-6.2-14.9-9.6-23.8-9.2
		c0.9-2.6,1.4-5.3,1.4-8c0.2-13.1-10.3-23.8-23.3-24c-2.5,0-4.9,0.3-7.3,1c-4.1-26.4-26.3-46.1-53-47c-4.4-0.2-8.1,3.3-8.3,7.7
		c-0.2,4.4,3.3,8.1,7.7,8.3c22,0.8,39.2,19.2,38.4,41.2c-0.4,10.1-4.6,19.7-11.7,26.9c-6.3,6.2-16.4,6.2-22.6,0L298,160.1
		c-6.2-6.2-6.3-16.4,0-22.6l0,0c1.2-1.1,2.4-2.1,3.7-3l0.6-0.5c3.4-2.6,4-7.4,1.4-10.8c-0.1-0.1-0.1-0.1-0.2-0.2
		c-2.8-3.5-7.9-4.1-11.5-1.4c-1.9,1.4-3.8,2.9-5.5,4.6c-10.1,10-12.3,25.6-5.3,38l-9.6,7.4c0.1-1.2,0.3-2.4,0.3-3.7
		c0-22.1-18-40.1-40.2-40c-0.3,0-0.6,0-0.8,0c-4.5-17.1-22-27.3-39.1-22.8c-14,3.7-23.7,16.3-23.8,30.8c0,0.4,0,0.8,0.1,1.2
		c-2.6-0.7-5.3-1.1-8.1-1.2h-0.2c-2.6-3.5-5.8-6.6-9.4-9.1c-3.6-2.5-8.6-1.6-11.1,2.1c-2.5,3.6-1.6,8.6,2.1,11.1l0,0
		c3.1,2.1,5.7,4.9,7.5,8.2c1.6,3,5,4.6,8.4,4c0.9-0.2,1.9-0.3,2.8-0.3c8.8,0,16,7.2,16,16c0,3.6-1.2,7-3.5,9.8
		c-2.1,2.7-2.3,6.4-0.4,9.3c6.9,10.6,4.3,24.7-5.9,32.1c-1.5,1.2-2.6,2.9-3,4.8h-9.7c-0.5-1.2-1-2.4-1.5-3.5l7.8-43
		c0.8-4.3-2-8.5-6.4-9.3s-8.5,2-9.3,6.4v0.1l-3.9,21.6c-3.3-5.4-6.8-10.6-10.7-15.6l6-18c1.4-4.2-0.9-8.7-5.1-10.1
		c-4.2-1.4-8.7,0.9-10.1,5.1l0,0l-2.9,8.7c-6.6-7.1-13.8-13.7-21.5-19.6v-18.8c0-4.4-3.6-8-8-8s-8,3.6-8,8v7.8
		c-4-2.4-8.2-4.8-12.4-7c-4-2-8.8-0.4-10.7,3.6s-0.4,8.8,3.6,10.7c4.4,2.2,8.7,4.6,12.9,7.2l-4.9,2.4c-4,2-5.6,6.8-3.6,10.7
		c2,4,6.8,5.6,10.7,3.6l12.6-6.3c5.9,4.7,11.4,9.7,16.5,15.2H88.1c-4.4,0-8,3.6-8,8s3.6,8,8,8h30.3c4.2,5.8,8,11.9,11.4,18.3
		l-16.6-2.2c-4.4-0.5-8.4,2.6-8.9,7c-0.5,4.3,2.5,8.2,6.8,8.9l0.5,0.1H74.3c-1.5-2.4-2.2-5.2-2.2-8c0-2.1,0.4-4.1,1.2-6
		c1.2-3,0.5-6.5-1.8-8.8c-6.4-5.9-8.9-14.9-6.4-23.3c0.6-2.5,0.1-5.1-1.5-7c-1.6-2-4-3.1-6.6-3c-0.5,0-0.9,0.1-0.9,0.1
		c-8.8,0-16-7-16-15.8c0-4,1.5-7.9,4.2-10.8c2.7-3,2.7-7.7,0-10.7c-5.9-6.5-5.4-16.6,1.2-22.5s16.6-5.4,22.5,1.2
		c0.5,0.5,0.9,1.1,1.3,1.7c2.1,3.1,6.2,4.3,9.6,2.9c12.3-5.1,26.3,0.8,31.3,13c0.6,1.3,1,2.7,1.3,4.2c0.9,4.3,5.2,7.1,9.5,6.2
		c4.3-0.9,7.1-5.2,6.2-9.5c-4.6-21.6-25.8-35.4-47.4-30.8c-0.4,0.1-0.9,0.2-1.3,0.3c-12.6-12.4-32.9-12.2-45.3,0.5
		c-5.9,6-9.1,14-9.1,22.4c0,5.6,1.5,11.2,4.4,16c-2.9,4.8-4.4,10.4-4.4,16c0,14.6,9.9,27.3,24,31c0,0.3,0,0.7,0,1
		c0,9.1,3.1,17.9,8.8,25c-1.2,5-1.1,10.1,0.4,15h-1.2c-4.4,0-8,3.6-8,8v16c0,20.1,4.4,40,13.1,58.2c1.9,4,6.7,5.7,10.7,3.8
		s5.7-6.7,3.8-10.7l0,0c-7.7-16.3-11.6-33.9-11.6-51.6v-8H328c-5.1,7.3-7.4,16.2-6.4,25c-6.8,4.9-12.9,10.8-18,17.4
		c-5.1-5.7-12.2-9.3-19.8-10.2c-8.7-15.3-28.1-20.8-43.4-12.1c-5.1,2.9-9.3,7.1-12.2,12.2c-1.4-0.2-2.7-0.4-4.1-0.4
		c-13.3,0-24,10.7-24,24c0,10.2,6.4,19.3,16,22.7c0,0.5,0,0.9,0,1.4c0,0.8,0.2,1.6,0.2,2.5l-87.8-6.8c-14.6-1.1-28.9,3.9-39.7,13.8
		c-1.4,1.3-2.8,2.7-4.1,4.2l-24.4-17.5c-10-7.3-24-5.1-31.3,4.8c-5.8,7.9-5.8,18.7,0.1,26.6c-2.1,0.9-4.1,2.1-5.8,3.7
		c-9.2,8.1-10.1,22.2-1.9,31.4c2.1,2.4,4.8,4.3,7.7,5.6c-7.3,9.9-5.2,23.9,4.7,31.3c2.6,1.9,5.5,3.2,8.6,3.9
		c6.2,1.3,12.7,0,17.9-3.7l8.3-6c3.6-2.5,4.6-7.5,2-11.1c-2.5-3.6-7.5-4.6-11.1-2c-0.1,0.1-0.2,0.1-0.2,0.2l-8.3,6c-3,2-7,1.2-9-1.7
		c-2-3-1.2-7,1.7-9c0.3-0.2,0.5-0.3,0.8-0.5l16-7.2l15-1.5c7.7,20.3,27.2,33.7,48.9,33.6c1.3,0,2.7-0.1,4-0.2l72-5.5
		c4.4-0.3,7.7-4.2,7.4-8.6s-4.2-7.7-8.6-7.4l-15.1,1.1v-24c0-4.4-3.6-8-8-8s-8,3.6-8,8v25.2l-40.8,3.1
		c-20.1,1.5-37.6-13.5-39.1-33.6s13.5-37.6,33.6-39.1c1.8-0.1,3.7-0.1,5.5,0l0.8,0.1v20.3c0,4.4,3.6,8,8,8s8-3.6,8-8v-19.1l48,3.7
		v23.4c0,4.4,3.6,8,8,8s8-3.6,8-8v-22.1l16,1.2v12.9c0,4.4,3.6,8,8,8s8-3.6,8-8v-11.7l15.5,1.2c14.6,1.1,25.5,13.8,24.4,28.4
		c-0.8,9.8-6.9,18.4-15.9,22.3v-16.2c0-4.4-3.6-8-8-8s-8,3.6-8,8V395l-16.9,1.3c-4.4,0.3-7.7,4.1-7.4,8.5s4.1,7.7,8.5,7.4h0.1
		l24.3-1.9c18.9-1.5,34.5-15.4,38.4-34c22.3,43.1,75.4,60,118.5,37.7c29.2-15.1,47.5-45.3,47.5-78.1c0-4.4-3.6-8-8-8s-8,3.6-8,8
		c0,39.8-32.2,72-72,72s-72-32.2-72-72c0-12,3-23.8,8.7-34.3c0.1-0.2,0.2-0.3,0.3-0.5c4.2-7.6,9.8-14.4,16.5-20l7.1,17.8
		c1.6,4.1,6.2,6.2,10.3,4.6c4.1-1.6,6.2-6.2,4.6-10.3c0-0.1-0.1-0.2-0.1-0.2l-9.9-24.7c-2.7-6.8-1.6-14.5,3-20.2l5.5-6.9
		c6.5-8.3,18.3-10.1,27-4.2l17.2,11.4c7.7,5.1,17,7.1,26.1,5.6l10-1.7c11-1.8,21.4,5.7,23.2,16.7c0.9,5.7-0.6,11.6-4.3,16.1
		l-22.7,27.5l-10.9-27.7c-1.7-4.1-6.3-6.1-10.4-4.4c-1.3,0.5-2.4,1.4-3.3,2.5l-18.3,23.3l-7.5-35.9c-0.8-4.3-5-7.2-9.3-6.4
		s-7.2,5-6.4,9.3c0,0.1,0,0.2,0.1,0.4l11.1,52.7c0.9,4.3,5.2,7.1,9.5,6.2c1.8-0.4,3.5-1.4,4.6-2.9l20.4-25.9l11,27.4
		c1.1,2.6,3.4,4.5,6.2,4.9c0.4,0.1,0.8,0.1,1.2,0.1c2.4,0,4.6-1.1,6.2-2.9l31.3-37.8c11.8-14.2,10.9-35-1.9-48.3
		c7.8-1.1,15.8-1.1,23.6,0.2l3.4,0.6c4.3,0.7,8.3-2.1,9.2-6.3l2.4-11.9C497.4,220.3,495,210.7,488.9,203.4z M41.7,331.1
		c0.9-1.6,2.4-2.7,4.2-3.1s3.7,0,5.2,1.1l25.2,18.1c-0.3,0.6-0.4,1.2-0.7,1.8l-15-1.5l-16-7.2c-3.3-1.5-4.7-5.3-3.2-8.6
		C41.6,331.5,41.7,331.4,41.7,331.1L41.7,331.1z M39.2,374.3c-3.6,0.3-6.7-2.3-7.1-5.8c-0.2-2,0.6-4,2.1-5.4c1.4-1.2,3.2-1.8,5-1.6
		l33,3.3c-0.1,1-0.2,2.1-0.2,3.1s0.1,2.1,0.2,3.1L39.2,374.3z M256.8,325.5l-24.2-1.9c-0.8-3-0.6-6.2,0.5-9.1
		c0.8-2.6,0.2-5.5-1.6-7.6c-1.9-2.2-4.7-3.3-7.5-3c-4.4,0-8-3.6-8-8s3.6-8,8-8c1.5,0,3,0.5,4.3,1.3c3.7,2.4,8.7,1.3,11.1-2.4
		c0.5-0.8,0.9-1.6,1.1-2.5c1.9-8.6,10.5-13.9,19-12c5.4,1.2,9.8,5.2,11.5,10.4c1.1,3.4,4.4,5.6,7.9,5.4c0.3,0,0.7-0.1,1-0.1
		c6.1,0,11.7,3.6,14.3,9.2c-6,12.1-9.2,25.4-9.2,38.8c0,1.4,0.1,2.7,0.2,4.1C278.2,331.6,267.9,326.4,256.8,325.5L256.8,325.5z
		 M296.2,223.9h-19.6c5.1-11.1,4.5-24-1.4-34.7l16.4-12.8l6.3,6.3l-5.7,5.7c-3.2,3.1-3.3,8.1-0.2,11.3c3.1,3.2,8.1,3.3,11.3,0.2
		c0.1-0.1,0.1-0.1,0.2-0.2l5.7-5.7l6.3,6.3l-15.6,20.1C298.9,221.7,297.6,222.9,296.2,223.9z M200.1,119.9c8.6,0,15.7,6.9,16,15.5
		c0,0.3-0.1,1.1-0.1,1.4c-0.2,4.4,3.3,8.1,7.7,8.3c0.8,0,1.6-0.1,2.4-0.3c12.6-3.5,25.7,3.9,29.2,16.5c1.7,6,0.9,12.5-2.2,18
		c-1.8,3.4-1,7.6,2,10c5.7,4.5,9,11.3,9.1,18.6c0,6-2.4,11.7-6.5,16h-18.9l8-11.4c2.6-3.6,1.8-8.6-1.8-11.2s-8.6-1.8-11.2,1.8
		c-0.1,0.1-0.1,0.2-0.2,0.3l-1,1.4c-0.6-4.1-1.4-8.2-2.4-12.2l9.3-21.4c1.8-4.1-0.1-8.8-4.2-10.5s-8.8,0.1-10.5,4.2l0,0l-2.4,5.5
		c-2.2-4.9-4.7-9.8-7.4-14.4c-2.2-3.8-7.1-5.1-10.9-2.9s-5.1,7.1-2.9,10.9c0,0.1,0.1,0.2,0.1,0.2c2.6,4.3,4.9,8.8,6.9,13.4
		l-16.2-6.9c0.1-0.9,0.2-1.8,0.2-2.6c0-7.3-2.6-14.4-7.2-20c1-2,1.1-4.2,0.3-6.3c-0.7-1.8-1.1-3.7-1.1-5.7
		C184.1,127.1,191.3,119.9,200.1,119.9z M190,187.1l25,10.6c1.4,5.8,2.3,11.6,2.8,17.5l-14.2-6.6c-4-2-8.8-0.3-10.7,3.6
		c-2,4-0.3,8.8,3.6,10.7c0.1,0.1,0.3,0.1,0.4,0.2l1.6,0.7H184C192,213.5,194.3,199.6,190,187.1L190,187.1z M342.8,223.9h-25.3
		l10.3-13.2c12.4,7,28,4.8,38-5.3c8.7-8.7,14.3-20,15.9-32.1l0.9,0.9c3.1-3.2,8.1-3.3,11.3-0.2c3.2,3.1,3.3,8.1,0.2,11.3
		c-0.6,0.7-1.4,1.2-2.2,1.6c-3.9,2.1-5.3,7-3.2,10.9c0.5,0.8,1,1.6,1.8,2.2c1.2,1,2.2,2.2,3,3.5c2.3,3.6,7,4.8,10.7,2.7
		c4.1-2.3,8.9-2.7,13.3-1.1c-10.3,6.1-19.4,14.2-26.6,23.8l-7.7-5.2C371,215.4,354.9,215.5,342.8,223.9z M479.8,226.4l-0.9,4.4
		c-15.1-1.7-30.3,0.2-44.5,5.5c-3.1-0.3-6.3-0.3-9.4,0.2l-10,1.7c-3.4,0.6-7,0.2-10.2-1c14.4-18.4,36.5-29.2,59.9-29.3
		c8.6,0,15.5,6.9,15.5,15.5C480.1,224.4,480,225.4,479.8,226.4L479.8,226.4z"/>
</g>
</svg>
