<?xml version="1.0" encoding="utf-8"?>
<!-- Generator: Adobe Illustrator 22.0.1, SVG Export Plug-In . SVG Version: 6.00 Build 0)  -->
<svg version="1.1" id="Capa_1" xmlns="http://www.w3.org/2000/svg" xmlns:xlink="http://www.w3.org/1999/xlink" x="0px" y="0px"
	 viewBox="0 0 512 512" style="enable-background:new 0 0 512 512;" xml:space="preserve">
<style type="text/css">
	.st0{fill:#31D96D;}
</style>
<g id="Outline">
	<g>
		<path class="st0" d="M469,145.7L348.8,49.5L373,30.1c3.5-2.8,4-7.8,1.2-11.2c-2.8-3.5-7.8-4-11.2-1.2l-32,25.6l-29.2,23.4
			l-19.4-23.1c-2.8-3.4-7.9-3.8-11.3-1l-49,41.1c-3.4,2.8-3.8,7.9-1,11.3l18.2,21.7l-36.3,29c-1.9,1.5-3,3.8-3,6.2v88h-96
			c-4.4,0-8,3.6-8,8s3.6,8,8,8h127.2l-4.7,46.8c-7.7,0.7-15.5-1.2-22-5.5c-17.2-11.5-39.7-11.5-56.9,0c-11.8,7.9-27.3,7.9-39.1,0
			c-14.2-9.5-32.2-11.2-47.9-4.6l-3.8-36.7H72c4.4,0,8-3.6,8-8s-3.6-8-8-8H48c-4.4,0-8,3.5-8,8c0,0.3,0,0.6,0,0.8l12,120
			c0.4,4.1,3.9,7.2,8,7.2c0.3,0,0.5,0,0.8,0c4.4-0.4,7.6-4.3,7.2-8.7l0,0l-5.8-57.5c11.6-6.9,26.1-6.5,37.4,1
			c17.2,11.5,39.7,11.5,56.9,0c11.8-7.9,27.3-7.9,39.1,0c8.7,5.7,18.9,8.6,29.3,8.4l-16.1,161H79.2l-8-80.8
			c-0.4-4.4-4.4-7.6-8.8-7.2s-7.6,4.4-7.2,8.8l8.8,88c0.4,4.1,3.8,7.2,7.9,7.2h392c4.4,0,8-3.6,8-8V303.9c0-4.4-3.6-8-8-8
			s-8,3.6-8,8v112h-41c-2.3-9.7-8.8-17.9-17.7-22.3c-3.9-2-8.8-0.4-10.8,3.5s-0.4,8.8,3.5,10.8c0,0,0.1,0,0.1,0.1
			c3.4,1.7,6.2,4.6,7.9,8h-85.4c0.9-8.2,3.2-16.3,6.9-23.7c19.5,13.6,46.3,8.8,59.9-10.7c2-2.8,3.6-5.9,4.8-9.1
			c5,2.3,10.4,3.4,15.8,3.5h8c4.4,0,8-3.6,8-8c0-5.5-1.2-11-3.5-16H432c4.4,0,8-3.6,8-8s-3.6-8-8-8h-32.4c-0.2-0.1-0.3-0.3-0.4-0.4
			c10.7-10.7,16.8-25.3,16.8-40.4v-15.3c0-4.4-3.6-8-8-8c-2.5,0-4.9,1.2-6.4,3.2l-9.1,12.1c-7.9,10.5-20.3,16.7-33.4,16.7h-28.6
			c-0.6,0-1.1,0.1-1.6,0.2v-0.2c-13.1,0-25.5-6.2-33.4-16.7l-9.1-12.1c-2.7-3.5-7.7-4.3-11.2-1.6c-2,1.5-3.2,3.9-3.2,6.4v15.2
			c0,15.2,6.1,29.7,16.8,40.4c-10.5,7.5-16.7,19.5-16.8,32.4c0,4.4,3.6,8,8,8s8-3.6,8-8c0.1-8.3,4.4-16,11.5-20.3l1.3,13.2
			c0.7,6.9,3.1,13.4,6.9,19.2c-6.3,11-10.2,23.2-11.3,35.8H256c-4.4,0-8,3.6-8,8s3.6,8,8,8h200v48H224.8l22.4-224H456v16
			c0,4.4,3.6,8,8,8s8-3.6,8-8V151.9C472,149.5,470.9,147.2,469,145.7z M387.6,356.3l0.9-8.6c4.7,2.8,8.2,7.1,10.1,12.3
			C394.7,359.6,390.9,358.4,387.6,356.3z M399.1,303.8c-1.8,8-5.8,15.3-11.7,20.9c-1.3-3.5-3.2-6.8-5.6-9.6
			C388.2,312.5,394,308.6,399.1,303.8z M357.5,319.9c8.8,0,16,7.2,16,16c0,0.5,0,1.1-0.1,1.6l-2.2,21.8c-1.5,15-14.9,26-29.9,24.5
			c-13-1.3-23.2-11.5-24.5-24.5l-2.2-21.8c-0.9-8.8,5.5-16.6,14.3-17.5c0.5-0.1,1.1-0.1,1.6-0.1H357.5z M306.2,315.2
			c-2.4,2.8-4.3,6.1-5.6,9.6c-5.9-5.7-9.9-13-11.7-20.9C294,308.6,299.8,312.5,306.2,315.2L306.2,315.2z M238.5,90.8l36.8-30.9
			l14,16.7l-37.5,30L238.5,90.8z M216,239.9v-80h200c4.4,0,8-3.6,8-8s-3.6-8-8-8H230.8L336,59.7l120,96v84.2H216z"/>
		<path class="st0" d="M328,175.9h-88c-4.4,0-8,3.6-8,8v32c0,4.4,3.6,8,8,8h88c4.4,0,8-3.6,8-8v-32C336,179.5,332.4,175.9,328,175.9
			z M320,207.9h-72v-16h72V207.9z"/>
		<path class="st0" d="M424,175.9h-48c-4.4,0-8,3.6-8,8s3.6,8,8,8h48c4.4,0,8-3.6,8-8S428.4,175.9,424,175.9z"/>
		<path class="st0" d="M392,207.9h-16c-4.4,0-8,3.6-8,8s3.6,8,8,8h16c4.4,0,8-3.6,8-8S396.4,207.9,392,207.9z"/>
		<circle class="st0" cx="104" cy="367.9" r="8"/>
		<circle class="st0" cx="120" cy="407.9" r="8"/>
		<circle class="st0" cx="104" cy="455.9" r="8"/>
	</g>
</g>
</svg>
