<?xml version="1.0" encoding="utf-8"?>
<!-- Generator: Adobe Illustrator 22.0.1, SVG Export Plug-In . SVG Version: 6.00 Build 0)  -->
<svg version="1.1" id="Capa_1" xmlns="http://www.w3.org/2000/svg" xmlns:xlink="http://www.w3.org/1999/xlink" x="0px" y="0px"
	 viewBox="0 0 512 512" style="enable-background:new 0 0 512 512;" xml:space="preserve">
<style type="text/css">
	.st0{fill:#31D96D;}
</style>
<g id="Outline">
	<g>
		<path class="st0" d="M198.6,368.4c-4.3,0.7-7.3,4.8-6.6,9.2L208.9,478l-1.4,0.4l-46-123.4c-4.2-11.4-16.9-17.2-28.3-12.9
			c-4.8,1.8-8.8,5.2-11.4,9.6c-0.9,1.5-2.4,2.6-4.1,2.9c-1.7,0.4-3.4-0.1-4.8-1.1c-42.1-32.8-69.4-81-75.9-134
			c-0.5-4.4-4.5-7.5-8.9-7s-7.5,4.5-7,8.9l0,0c7,57.2,36.6,109.3,82,144.7c5,3.9,11.5,5.4,17.7,4.2c6.3-1.2,11.7-5.1,14.9-10.6
			c1.7-2.9,5.3-3.9,8.2-2.2c1.2,0.7,2.1,1.8,2.6,3.1L195,490.8c1.2,3.1,4.1,5.2,7.5,5.2c0.7,0,1.4-0.1,2.1-0.3l15.4-4.1
			c4-1.1,6.5-5,5.8-9.1l-18-107.5C207,370.6,202.9,367.7,198.6,368.4L198.6,368.4z"/>
		<path class="st0" d="M25.8,194c4.4-0.5,7.5-4.5,7-8.9c-2.3-17.2,0-34.7,6.7-50.7c18.5-42,64.4-64.8,109-54
			c-7,13.4-11.6,28-13.7,43c-0.6,4.4,2.4,8.4,6.8,9c0.4,0.1,0.8,0.1,1.1,0.1c4,0,7.4-2.9,7.9-6.9c2.3-18.4,9.3-35.9,20.2-50.9
			c30-40.4,84.4-54.1,129.9-32.7c4,1.9,8.8,0.1,10.6-3.9c1.9-4,0.1-8.8-3.9-10.6C255.2,2.9,192.7,18.6,158.1,65
			c-0.3,0.4-0.6,0.8-0.9,1.2C103.8,50.6,47.2,77,24.8,127.9c-7.9,18.6-10.6,39-7.9,59.1c0.5,4,3.9,7,7.9,7
			C25.2,194.1,25.5,194.1,25.8,194z"/>
		<path class="st0" d="M487.1,127.9c-22.4-50.9-79-77.3-132.4-61.7c-0.3-0.4-0.6-0.8-0.9-1.2c-5.2-6.8-11.1-13.1-17.6-18.7
			c-3.2-3-8.3-2.8-11.3,0.4s-2.8,8.3,0.4,11.3c0.1,0.1,0.2,0.2,0.3,0.3c5.7,4.9,10.8,10.4,15.4,16.3c10.9,15,17.9,32.5,20.2,50.9
			l5.4,38.1c9,62.4-8.9,125.7-49.1,174.3c-13.8-8.8-32.2-4.8-41,9c-2.8,4.4-4.4,9.4-4.6,14.5l-6.2,126l16,0.8l6.2-126
			c0.1-5.7,3.9-10.7,9.4-12.3c5.4-1.8,11.3-0.1,14.9,4.4c1.5,1.8,3.7,2.9,6,2.9c2.3,0.1,4.6-0.9,6.1-2.7
			c10.9-12.3,20.5-25.6,28.6-39.8c0.6-0.3,1.1-0.6,1.6-1l19.1-16.7c13.1-11.4,30.9-15.6,47.7-11.1c4.3,1.2,8.7-1.4,9.8-5.6
			s-1.4-8.7-5.6-9.8c0,0,0,0-0.1,0c-19.3-5.2-39.9-1.6-56.3,9.8c4-10.4,7.2-21.2,9.7-32.1l6.3-6.1c17.1-16.4,40.4-24.9,64.1-23.4
			c4.4,0.3,8.2-3.1,8.5-7.5s-3.1-8.2-7.5-8.5c-24.1-1.5-47.9,5.7-67.1,20.2c0.6-5.3,1-10.6,1.3-15.9l5-18.6l17.3-15.1
			c13.1-11.4,30.9-15.6,47.7-11.1c4.3,1.1,8.7-1.4,9.8-5.7c1.1-4.3-1.4-8.7-5.7-9.8c-21.6-5.8-44.7-0.6-61.7,14l11.8-43.9
			c1.3-4.2-1.2-8.7-5.4-9.9c-4.2-1.3-8.7,1.2-9.9,5.4c0,0.1-0.1,0.3-0.1,0.4L381.8,156l-4.7-32.7c-2.1-15-6.7-29.6-13.7-43
			c44.6-10.7,90.5,12,109,54.1c6.7,16,9,33.5,6.7,50.8c-0.5,4.4,2.6,8.4,7,8.9c0.3,0,0.6,0.1,1,0.1c4,0,7.4-3,7.9-7
			C497.8,167,495,146.6,487.1,127.9z"/>
		<path class="st0" d="M484,212.5c-4.4-0.5-8.4,2.6-8.9,7l0,0c-6.5,53-33.8,101.2-76,134c-1.4,1.1-3.1,1.5-4.8,1.1
			c-1.7-0.3-3.2-1.4-4.1-2.9c-6.1-10.5-19.5-14.1-30.1-8.1c-4.4,2.6-7.8,6.6-9.6,11.4l-46,123.4l-1.4-0.4l16.6-98.7
			c0.8-4.3-2.1-8.5-6.4-9.3s-8.5,2.1-9.3,6.4c0,0.1,0,0.2,0,0.2l-17.8,105.9c-0.7,4.1,1.8,8,5.8,9.1l15.4,4.1
			c0.7,0.2,1.4,0.3,2.1,0.3c3.3,0,6.3-2.1,7.5-5.2l48.6-130.2c1.2-3.1,4.6-4.7,7.7-3.5c1.3,0.5,2.4,1.4,3.1,2.6
			c3.2,5.5,8.6,9.4,14.9,10.6c6.2,1.2,12.7-0.3,17.7-4.2c45.5-35.4,75-87.5,82-144.7C491.5,217,488.4,213,484,212.5z"/>
		<path class="st0" d="M219.6,334.9c-8.5-2.8-17.8-1.7-25.3,3.2c-40.2-48.6-58.1-111.9-49.1-174.3c0.6-4.4-2.4-8.4-6.8-9.1l0,0
			c-3-0.4-6,0.9-7.7,3.5L118.6,113c-1-4.3-5.3-6.9-9.6-5.9c-4.3,1-6.9,5.3-5.9,9.6c0,0.1,0.1,0.3,0.1,0.4L115,161
			c-17-14.6-40.1-19.8-61.7-14c-4.3,1.1-6.8,5.5-5.7,9.8s5.5,6.8,9.8,5.7c16.7-4.5,34.6-0.4,47.7,11.1l17.3,15.1l5,18.6
			c0.3,5.3,0.7,10.6,1.3,15.9c-19.2-14.5-43-21.7-67.1-20.2c-4.4,0.3-7.8,4.1-7.5,8.5s4.1,7.8,8.5,7.5c23.7-1.5,46.9,7,64.1,23.4
			l6.3,6.1c2.5,10.9,5.7,21.6,9.7,32.1c-16.4-11.4-37-15-56.3-9.8c-4.3,1.1-6.8,5.5-5.7,9.8s5.5,6.8,9.8,5.7c0,0,0,0,0.1,0
			c16.7-4.5,34.6-0.4,47.7,11.1l19.1,16.7c0.5,0.4,1,0.7,1.6,1c8.2,14.2,17.8,27.6,28.6,39.8c1.5,1.8,3.8,2.7,6.1,2.7s4.5-1.1,6-2.9
			c3.6-4.4,9.5-6.2,14.9-4.4c5.5,1.7,9.2,6.6,9.4,12.3l3.2,66c0.2,4.3,3.7,7.6,8,7.6h0.4c4.4-0.2,7.8-4,7.6-8.4l0,0l-3.2-66
			C239.4,349.3,231.3,338.7,219.6,334.9z"/>
		<path class="st0" d="M275.6,177.9c3.1,3.2,8.2,3.2,11.3,0.1c11.7-11.5,26.6-19.4,42.7-22.6c4.3-0.9,7.1-5.2,6.1-9.5
			c-0.9-4.2-5-7-9.3-6.2c-19.2,3.8-36.8,13.2-50.8,26.9C272.5,169.7,272.5,174.7,275.6,177.9z"/>
		<path class="st0" d="M276.8,306.6c7.4-11,18.6-18.8,31.5-21.7c4.3-1,6.9-5.4,5.9-9.7c-1-4.2-5.2-6.8-9.5-5.9
			c-16.6,3.8-31.1,13.7-40.8,27.8v-27.4l12.8-19.1c9.7-14.4,25.9-23.1,43.2-23c4.4,0,8-3.6,8-8s-3.6-8-8-8c-22.4,0-43.3,11-56,29.5
			v-99.4l12.8-19.1c7.4-11,18.6-18.8,31.5-21.7c4.3-1,6.9-5.4,5.9-9.7c-1-4.2-5.2-6.8-9.5-5.9c-16.4,3.8-31,13.7-40.6,27.7V67.6
			c0-4.4-3.6-8-8-8c-4.4,0-8,3.6-8,8V113c-9.4-13.6-23.4-23.4-39.4-27.4c-4.3-1.1-8.6,1.5-9.7,5.8c-1.1,4.3,1.5,8.6,5.8,9.7l0,0
			c12.5,3.1,23.3,10.8,30.5,21.5l12.8,19.1v38.9c-14.8-21.1-37.2-35.7-62.4-40.8c-4.3-0.8-8.5,2.1-9.3,6.4c-0.8,4.3,2,8.4,6.2,9.3
			c23.3,4.7,43.5,18.9,55.8,39.2l9.7,16.1V241c-12.7-18.5-33.6-29.5-56-29.5c-4.4,0-8,3.6-8,8s3.6,8,8,8c17.3,0,33.5,8.6,43.2,23
			l12.8,19.1V297c-9.4-13.6-23.4-23.4-39.4-27.4c-4.3-1.1-8.6,1.5-9.7,5.8c-1.1,4.3,1.5,8.6,5.8,9.7l0,0
			c12.5,3.1,23.3,10.8,30.5,21.5l12.8,19.1v157.9c0,4.4,3.6,8,8,8s8-3.6,8-8V325.7L276.8,306.6z"/>
	</g>
</g>
</svg>
